<svg width="20" height="17" viewBox="0 0 20 17" fill="none" xmlns="http://www.w3.org/2000/svg">
<g clip-path="url(#clip0_24_2)">
<path d="M14 12H6C5.44772 12 5 12.4477 5 13V16C5 16.5523 5.44772 17 6 17H14C14.5523 17 15 16.5523 15 16V13C15 12.4477 14.5523 12 14 12Z" fill="#D9D9D9"/>
<path d="M10.8839 1.11612C10.3957 0.627961 9.60426 0.627961 9.11611 1.11612L1.16116 9.07107C0.673004 9.55922 0.673004 10.3507 1.16116 10.8388C1.64931 11.327 2.44077 11.327 2.92892 10.8388L9.99999 3.76777L17.0711 10.8388C17.5592 11.327 18.3507 11.327 18.8388 10.8388C19.327 10.3507 19.327 9.55922 18.8388 9.07107L10.8839 1.11612ZM11.25 3V2H8.74999V3H11.25Z" fill="#E0E0E0"/>
<path d="M9.30217 6.67989C9.69048 6.30156 10.3095 6.30156 10.6978 6.67989L15.1666 11.0337C15.8093 11.6598 15.366 12.75 14.4688 12.75H5.53121C4.63401 12.75 4.19075 11.6598 4.83338 11.0337L9.30217 6.67989Z" fill="#F7F7F7"/>
</g>
<defs>
<clipPath id="clip0_24_2">
<rect width="20" height="17" fill="white"/>
</clipPath>
</defs>
</svg>
